<svg width="272" height="284" viewBox="0 0 272 284" version="1.1" xmlns="http://www.w3.org/2000/svg" xmlns:xlink="http://www.w3.org/1999/xlink">
<title>Component 4</title>
<desc>Created using Figma</desc>
<g id="Canvas" transform="matrix(4 0 0 4 -392 -528)">
<g id="Component 4">
<g id="E">
<use xlink:href="#path0_fill" transform="translate(109 132)"/>
</g>
<g id="G">
<use xlink:href="#path1_fill" transform="translate(130 143)"/>
</g>
<g id=":">
<use xlink:href="#path2_fill" transform="matrix(2.06432e-16 -1 1 2.06432e-16 124 151)"/>
</g>
<g id=":">
<use xlink:href="#path2_fill" transform="matrix(6.12323e-17 -1 1 6.12323e-17 98 192)"/>
</g>
</g>
</g>
<defs>
<path id="path0_fill" d="M 25.248 46.472L 25.2 47L 5.568 47L 5.568 13.4L 25.2 13.4L 25.2 13.928L 6.144 13.928L 6.144 29.672L 22.32 29.672L 22.32 30.2L 6.144 30.2L 6.144 46.472L 25.248 46.472Z"/>
<path id="path1_fill" d="M 31.992 32.552L 31.992 43.688C 31.16 44.248 30.304 44.76 29.424 45.224C 28.544 45.672 27.616 46.056 26.64 46.376C 25.68 46.696 24.656 46.944 23.568 47.12C 22.496 47.296 21.352 47.384 20.136 47.384C 17.512 47.384 15.16 46.992 13.08 46.208C 11 45.408 9.232 44.264 7.776 42.776C 6.336 41.288 5.224 39.488 4.44 37.376C 3.672 35.248 3.288 32.856 3.288 30.2C 3.288 27.56 3.672 25.184 4.44 23.072C 5.208 20.944 6.312 19.136 7.752 17.648C 9.192 16.16 10.928 15.016 12.96 14.216C 15.008 13.416 17.304 13.016 19.848 13.016C 21.096 13.016 22.24 13.096 23.28 13.256C 24.32 13.4 25.288 13.632 26.184 13.952C 27.08 14.256 27.92 14.656 28.704 15.152C 29.504 15.632 30.28 16.2 31.032 16.856L 30.936 17C 30.888 17.096 30.808 17.144 30.696 17.144C 30.616 17.144 30.472 17.056 30.264 16.88C 30.072 16.688 29.792 16.464 29.424 16.208C 29.056 15.936 28.592 15.64 28.032 15.32C 27.472 15 26.8 14.712 26.016 14.456C 25.232 14.184 24.328 13.96 23.304 13.784C 22.296 13.592 21.144 13.496 19.848 13.496C 17.416 13.496 15.216 13.88 13.248 14.648C 11.28 15.4 9.6 16.496 8.208 17.936C 6.816 19.376 5.744 21.128 4.992 23.192C 4.24 25.256 3.864 27.592 3.864 30.2C 3.864 32.776 4.232 35.096 4.968 37.16C 5.704 39.224 6.768 40.976 8.16 42.416C 9.568 43.856 11.28 44.968 13.296 45.752C 15.312 46.52 17.592 46.904 20.136 46.904C 21.32 46.904 22.408 46.832 23.4 46.688C 24.408 46.528 25.36 46.304 26.256 46.016C 27.168 45.712 28.048 45.352 28.896 44.936C 29.744 44.504 30.6 44.016 31.464 43.472L 31.464 33.032L 23.928 33.032C 23.848 33.032 23.776 33.008 23.712 32.96C 23.664 32.896 23.64 32.84 23.64 32.792L 23.64 32.552L 31.992 32.552Z"/>
<path id="path2_fill" d="M 2.9225 34.16C 2.9225 33.845 3.0275 33.5767 3.2375 33.355C 3.45917 33.1217 3.7275 33.005 4.0425 33.005C 4.3575 33.005 4.62583 33.1217 4.8475 33.355C 5.08083 33.5767 5.1975 33.845 5.1975 34.16C 5.1975 34.475 5.08083 34.7433 4.8475 34.965C 4.62583 35.175 4.3575 35.28 4.0425 35.28C 3.7275 35.28 3.45917 35.175 3.2375 34.965C 3.0275 34.7433 2.9225 34.475 2.9225 34.16ZM 2.9225 19.495C 2.9225 19.18 3.0275 18.9117 3.2375 18.69C 3.45917 18.4567 3.7275 18.34 4.0425 18.34C 4.3575 18.34 4.62583 18.4567 4.8475 18.69C 5.08083 18.9117 5.1975 19.18 5.1975 19.495C 5.1975 19.81 5.08083 20.0783 4.8475 20.3C 4.62583 20.51 4.3575 20.615 4.0425 20.615C 3.7275 20.615 3.45917 20.51 3.2375 20.3C 3.0275 20.0783 2.9225 19.81 2.9225 19.495Z"/>
</defs>
</svg>
