<svg width="168" height="224" viewBox="0 0 168 224" version="1.1" xmlns="http://www.w3.org/2000/svg" xmlns:xlink="http://www.w3.org/1999/xlink">
<title>Component 2</title>
<desc>Created using Figma</desc>
<g id="Canvas" transform="matrix(4 0 0 4 -492 -552)">
<g id="Component 2">
<g id="G">
<use xlink:href="#path0_fill" transform="translate(130 138)"/>
</g>
<g id="::">
<use xlink:href="#path1_fill" transform="matrix(1 -1.26601e-17 1.26601e-17 1 123 150)"/>
</g>
<g id="e">
<use xlink:href="#path2_fill" transform="translate(123 165)"/>
</g>
</g>
</g>
<defs>
<path id="path0_fill" d="M 30.659 31.154L 30.659 41.826C 29.8617 42.3627 29.0413 42.8533 28.198 43.298C 27.3547 43.7273 26.4653 44.0953 25.53 44.402C 24.61 44.7087 23.6287 44.9463 22.586 45.115C 21.5587 45.2837 20.4623 45.368 19.297 45.368C 16.7823 45.368 14.5283 44.9923 12.535 44.241C 10.5417 43.4743 8.84733 42.378 7.452 40.952C 6.072 39.526 5.00633 37.801 4.255 35.777C 3.519 33.7377 3.151 31.4453 3.151 28.9C 3.151 26.37 3.519 24.093 4.255 22.069C 4.991 20.0297 6.049 18.297 7.429 16.871C 8.809 15.445 10.4727 14.3487 12.42 13.582C 14.3827 12.8153 16.583 12.432 19.021 12.432C 20.217 12.432 21.3133 12.5087 22.31 12.662C 23.3067 12.8 24.2343 13.0223 25.093 13.329C 25.9517 13.6203 26.7567 14.0037 27.508 14.479C 28.2747 14.939 29.0183 15.4833 29.739 16.112L 29.647 16.25C 29.601 16.342 29.5243 16.388 29.417 16.388C 29.3403 16.388 29.2023 16.3037 29.003 16.135C 28.819 15.951 28.5507 15.7363 28.198 15.491C 27.8453 15.2303 27.4007 14.9467 26.864 14.64C 26.3273 14.3333 25.6833 14.0573 24.932 13.812C 24.1807 13.5513 23.3143 13.3367 22.333 13.168C 21.367 12.984 20.263 12.892 19.021 12.892C 16.6903 12.892 14.582 13.26 12.696 13.996C 10.81 14.7167 9.2 15.767 7.866 17.147C 6.532 18.527 5.50467 20.206 4.784 22.184C 4.06333 24.162 3.703 26.4007 3.703 28.9C 3.703 31.3687 4.05567 33.592 4.761 35.57C 5.46633 37.548 6.486 39.227 7.82 40.607C 9.16933 41.987 10.81 43.0527 12.742 43.804C 14.674 44.54 16.859 44.908 19.297 44.908C 20.4317 44.908 21.4743 44.839 22.425 44.701C 23.391 44.5477 24.3033 44.333 25.162 44.057C 26.036 43.7657 26.8793 43.4207 27.692 43.022C 28.5047 42.608 29.325 42.1403 30.153 41.619L 30.153 31.614L 22.931 31.614C 22.8543 31.614 22.7853 31.591 22.724 31.545C 22.678 31.4837 22.655 31.43 22.655 31.384L 22.655 31.154L 30.659 31.154Z"/>
<path id="path1_fill" d="M 1.503 17.568C 1.503 17.406 1.557 17.268 1.665 17.154C 1.779 17.034 1.917 16.974 2.079 16.974C 2.241 16.974 2.379 17.034 2.493 17.154C 2.613 17.268 2.673 17.406 2.673 17.568C 2.673 17.73 2.613 17.868 2.493 17.982C 2.379 18.09 2.241 18.144 2.079 18.144C 1.917 18.144 1.779 18.09 1.665 17.982C 1.557 17.868 1.503 17.73 1.503 17.568ZM 1.503 10.026C 1.503 9.864 1.557 9.726 1.665 9.612C 1.779 9.492 1.917 9.432 2.079 9.432C 2.241 9.432 2.379 9.492 2.493 9.612C 2.613 9.726 2.673 9.864 2.673 10.026C 2.673 10.188 2.613 10.326 2.493 10.44C 2.379 10.548 2.241 10.602 2.079 10.602C 1.917 10.602 1.779 10.548 1.665 10.44C 1.557 10.326 1.503 10.188 1.503 10.026ZM 5.68659 17.568C 5.68659 17.406 5.74059 17.268 5.84859 17.154C 5.96259 17.034 6.10059 16.974 6.26259 16.974C 6.42459 16.974 6.56259 17.034 6.67659 17.154C 6.79659 17.268 6.85659 17.406 6.85659 17.568C 6.85659 17.73 6.79659 17.868 6.67659 17.982C 6.56259 18.09 6.42459 18.144 6.26259 18.144C 6.10059 18.144 5.96259 18.09 5.84859 17.982C 5.74059 17.868 5.68659 17.73 5.68659 17.568ZM 5.68659 10.026C 5.68659 9.864 5.74059 9.726 5.84859 9.612C 5.96259 9.492 6.10059 9.432 6.26259 9.432C 6.42459 9.432 6.56259 9.492 6.67659 9.612C 6.79659 9.726 6.85659 9.864 6.85659 10.026C 6.85659 10.188 6.79659 10.326 6.67659 10.44C 6.56259 10.548 6.42459 10.602 6.26259 10.602C 6.10059 10.602 5.96259 10.548 5.84859 10.44C 5.74059 10.326 5.68659 10.188 5.68659 10.026Z"/>
<path id="path2_fill" d="M 8.1 12.762C 8.1 12.192 8.019 11.688 7.857 11.25C 7.695 10.806 7.47 10.434 7.182 10.134C 6.9 9.834 6.567 9.606 6.183 9.45C 5.799 9.294 5.388 9.216 4.95 9.216C 4.422 9.216 3.945 9.3 3.519 9.468C 3.099 9.636 2.736 9.876 2.43 10.188C 2.124 10.5 1.878 10.875 1.692 11.313C 1.512 11.745 1.395 12.228 1.341 12.762L 8.1 12.762ZM 8.046 16.956C 7.944 17.082 7.791 17.214 7.587 17.352C 7.389 17.484 7.152 17.607 6.876 17.721C 6.606 17.835 6.309 17.928 5.985 18C 5.661 18.072 5.328 18.108 4.986 18.108C 4.38 18.108 3.837 18.003 3.357 17.793C 2.877 17.577 2.469 17.268 2.133 16.866C 1.803 16.464 1.548 15.972 1.368 15.39C 1.188 14.808 1.098 14.148 1.098 13.41C 1.098 12.762 1.185 12.171 1.359 11.637C 1.533 11.097 1.785 10.635 2.115 10.251C 2.445 9.867 2.847 9.57 3.321 9.36C 3.801 9.144 4.344 9.036 4.95 9.036C 5.412 9.036 5.847 9.12 6.255 9.288C 6.663 9.45 7.017 9.693 7.317 10.017C 7.623 10.341 7.863 10.74 8.037 11.214C 8.211 11.682 8.298 12.222 8.298 12.834C 8.298 12.864 8.286 12.888 8.262 12.906C 8.244 12.918 8.22 12.924 8.19 12.924L 1.332 12.924C 1.326 13.008 1.32 13.089 1.314 13.167C 1.314 13.245 1.314 13.326 1.314 13.41C 1.314 14.142 1.401 14.79 1.575 15.354C 1.749 15.912 1.995 16.383 2.313 16.767C 2.637 17.145 3.024 17.433 3.474 17.631C 3.93 17.829 4.434 17.928 4.986 17.928C 5.478 17.928 5.904 17.874 6.264 17.766C 6.624 17.658 6.924 17.538 7.164 17.406C 7.404 17.274 7.587 17.154 7.713 17.046C 7.839 16.938 7.914 16.884 7.938 16.884C 7.962 16.884 7.986 16.896 8.01 16.92L 8.046 16.956Z"/>
</defs>
</svg>
