<svg width="284" height="304" viewBox="0 0 284 304" version="1.1" xmlns="http://www.w3.org/2000/svg" xmlns:xlink="http://www.w3.org/1999/xlink">
<title>Component</title>
<desc>Created using Figma</desc>
<g id="Canvas" transform="matrix(4 0 0 4 -464 -444)">
<g id="Component">
<g id="e">
<use xlink:href="#path0_fill" transform="translate(116 114.052)"/>
</g>
<g id="[">
<use xlink:href="#path1_fill" transform="matrix(5.11596e-17 -1 1 5.2939e-17 110 191.283)"/>
</g>
<g id="G">
<use xlink:href="#path2_fill" transform="translate(133 125.241)"/>
</g>
<g id="...">
<use xlink:href="#path3_fill" transform="matrix(5.45703e-17 -1 1 5.64682e-17 133 159.828)"/>
</g>
</g>
</g>
<defs>
<path id="path0_fill" d="M 20.7 31.614C 20.7 30.1573 20.493 28.8693 20.079 27.75C 19.665 26.6153 19.09 25.6647 18.354 24.898C 17.6333 24.1313 16.7823 23.5487 15.801 23.15C 14.8197 22.7513 13.7693 22.552 12.65 22.552C 11.3007 22.552 10.0817 22.7667 8.993 23.196C 7.91967 23.6253 6.992 24.2387 6.21 25.036C 5.428 25.8333 4.79933 26.7917 4.324 27.911C 3.864 29.015 3.565 30.2493 3.427 31.614L 20.7 31.614ZM 20.562 42.332C 20.3013 42.654 19.9103 42.9913 19.389 43.344C 18.883 43.6813 18.2773 43.9957 17.572 44.287C 16.882 44.5783 16.123 44.816 15.295 45C 14.467 45.184 13.616 45.276 12.742 45.276C 11.1933 45.276 9.80567 45.0077 8.579 44.471C 7.35233 43.919 6.30967 43.1293 5.451 42.102C 4.60767 41.0747 3.956 39.8173 3.496 38.33C 3.036 36.8427 2.806 35.156 2.806 33.27C 2.806 31.614 3.02833 30.1037 3.473 28.739C 3.91767 27.359 4.56167 26.1783 5.405 25.197C 6.24833 24.2157 7.27567 23.4567 8.487 22.92C 9.71367 22.368 11.1013 22.092 12.65 22.092C 13.8307 22.092 14.9423 22.3067 15.985 22.736C 17.0277 23.15 17.9323 23.771 18.699 24.599C 19.481 25.427 20.0943 26.4467 20.539 27.658C 20.9837 28.854 21.206 30.234 21.206 31.798C 21.206 31.8747 21.1753 31.936 21.114 31.982C 21.068 32.0127 21.0067 32.028 20.93 32.028L 3.404 32.028C 3.38867 32.2427 3.37333 32.4497 3.358 32.649C 3.358 32.8483 3.358 33.0553 3.358 33.27C 3.358 35.1407 3.58033 36.7967 4.025 38.238C 4.46967 39.664 5.09833 40.8677 5.911 41.849C 6.739 42.815 7.728 43.551 8.878 44.057C 10.0433 44.563 11.3313 44.816 12.742 44.816C 13.9993 44.816 15.088 44.678 16.008 44.402C 16.928 44.126 17.6947 43.8193 18.308 43.482C 18.9213 43.1447 19.389 42.838 19.711 42.562C 20.033 42.286 20.2247 42.148 20.286 42.148C 20.3473 42.148 20.4087 42.1787 20.47 42.24L 20.562 42.332Z"/>
<path id="path1_fill" d="M 5.566 10.868L 5.566 50.152L 11.04 50.152C 11.2547 50.152 11.362 50.244 11.362 50.428L 11.362 50.566L 5.06 50.566L 5.06 10.454L 11.362 10.454L 11.362 10.592C 11.362 10.776 11.2547 10.868 11.04 10.868L 5.566 10.868Z"/>
<path id="path2_fill" d="M 18.262 29.268C 18.262 28.2713 18.0933 27.359 17.756 26.531C 17.434 25.703 16.9663 24.9977 16.353 24.415C 15.7397 23.817 14.996 23.357 14.122 23.035C 13.248 22.713 12.2667 22.552 11.178 22.552C 10.0893 22.552 9.108 22.713 8.234 23.035C 7.36 23.357 6.61633 23.817 6.003 24.415C 5.38967 24.9977 4.91433 25.703 4.577 26.531C 4.255 27.359 4.094 28.2713 4.094 29.268C 4.094 30.2647 4.255 31.177 4.577 32.005C 4.91433 32.833 5.38967 33.546 6.003 34.144C 6.61633 34.7267 7.36 35.179 8.234 35.501C 9.108 35.823 10.0893 35.984 11.178 35.984C 12.2973 35.984 13.294 35.823 14.168 35.501C 15.042 35.179 15.778 34.7267 16.376 34.144C 16.9893 33.546 17.457 32.833 17.779 32.005C 18.101 31.177 18.262 30.2647 18.262 29.268ZM 20.746 46.794C 20.746 45.9353 20.5313 45.253 20.102 44.747C 19.688 44.2257 19.1283 43.827 18.423 43.551C 17.7177 43.2597 16.9127 43.0603 16.008 42.953C 15.1033 42.8457 14.1603 42.769 13.179 42.723C 12.1977 42.6617 11.224 42.608 10.258 42.562C 9.292 42.516 8.40267 42.4163 7.59 42.263C 6.86933 42.5237 6.20233 42.8227 5.589 43.16C 4.97567 43.4973 4.44667 43.8883 4.002 44.333C 3.57267 44.7777 3.23533 45.2683 2.99 45.805C 2.74467 46.3417 2.622 46.932 2.622 47.576C 2.622 48.358 2.829 49.0863 3.243 49.761C 3.657 50.451 4.23967 51.049 4.991 51.555C 5.75767 52.061 6.68533 52.4597 7.774 52.751C 8.86267 53.0423 10.0893 53.188 11.454 53.188C 12.6653 53.188 13.8307 53.027 14.95 52.705C 16.0693 52.3983 17.0583 51.9613 17.917 51.394C 18.7757 50.842 19.458 50.175 19.964 49.393C 20.4853 48.611 20.746 47.7447 20.746 46.794ZM 21.574 23.564L 21.574 23.656C 21.574 23.748 21.5357 23.8247 21.459 23.886C 21.3823 23.9473 21.298 23.978 21.206 23.978L 16.698 24.07C 17.388 24.714 17.9093 25.473 18.262 26.347C 18.63 27.221 18.814 28.1947 18.814 29.268C 18.814 30.3413 18.63 31.3227 18.262 32.212C 17.9093 33.086 17.3957 33.8373 16.721 34.466C 16.0617 35.0947 15.2643 35.5853 14.329 35.938C 13.3937 36.2753 12.3433 36.444 11.178 36.444C 10.4113 36.444 9.69833 36.375 9.039 36.237C 8.395 36.0837 7.78933 35.869 7.222 35.593C 6.45533 36.0223 5.82667 36.559 5.336 37.203C 4.84533 37.847 4.6 38.468 4.6 39.066C 4.6 39.8327 4.83767 40.423 5.313 40.837C 5.78833 41.2357 6.417 41.5347 7.199 41.734C 7.981 41.9333 8.87033 42.0637 9.867 42.125C 10.8637 42.171 11.8833 42.217 12.926 42.263C 13.9687 42.309 14.9883 42.3857 15.985 42.493C 16.9817 42.6003 17.871 42.815 18.653 43.137C 19.435 43.4437 20.0637 43.8883 20.539 44.471C 21.0143 45.0383 21.252 45.8127 21.252 46.794C 21.252 47.6987 21.0143 48.5573 20.539 49.37C 20.079 50.198 19.4197 50.9263 18.561 51.555C 17.7177 52.199 16.6903 52.705 15.479 53.073C 14.283 53.4563 12.9413 53.648 11.454 53.648C 9.936 53.648 8.59433 53.487 7.429 53.165C 6.26367 52.843 5.28233 52.406 4.485 51.854C 3.68767 51.302 3.082 50.658 2.668 49.922C 2.26933 49.186 2.07 48.404 2.07 47.576C 2.07 46.9473 2.185 46.3493 2.415 45.782C 2.645 45.23 2.967 44.724 3.381 44.264C 3.81033 43.804 4.324 43.39 4.922 43.022C 5.52 42.654 6.187 42.3473 6.923 42.102C 6.07967 41.8873 5.39733 41.55 4.876 41.09C 4.35467 40.6147 4.094 39.94 4.094 39.066C 4.094 38.7593 4.15533 38.4373 4.278 38.1C 4.416 37.7627 4.6 37.433 4.83 37.111C 5.06 36.7737 5.336 36.4593 5.658 36.168C 5.99533 35.8613 6.371 35.593 6.785 35.363C 5.74233 34.7497 4.93733 33.9217 4.37 32.879C 3.818 31.8363 3.542 30.6327 3.542 29.268C 3.542 28.21 3.71833 27.244 4.071 26.37C 4.42367 25.4807 4.92967 24.7217 5.589 24.093C 6.26367 23.4643 7.06867 22.9737 8.004 22.621C 8.93933 22.2683 9.99733 22.092 11.178 22.092C 12.1747 22.092 13.0793 22.2223 13.892 22.483C 14.72 22.7283 15.456 23.0887 16.1 23.564L 21.574 23.564Z"/>
<path id="path3_fill" d="M 2.338 27.328C 2.338 27.076 2.422 26.8613 2.59 26.684C 2.76733 26.4973 2.982 26.404 3.234 26.404C 3.486 26.404 3.70067 26.4973 3.878 26.684C 4.06467 26.8613 4.158 27.076 4.158 27.328C 4.158 27.58 4.06467 27.7947 3.878 27.972C 3.70067 28.14 3.486 28.224 3.234 28.224C 2.982 28.224 2.76733 28.14 2.59 27.972C 2.422 27.7947 2.338 27.58 2.338 27.328ZM 8.84581 27.328C 8.84581 27.076 8.92981 26.8613 9.09781 26.684C 9.27515 26.4973 9.48981 26.404 9.74181 26.404C 9.99381 26.404 10.2085 26.4973 10.3858 26.684C 10.5725 26.8613 10.6658 27.076 10.6658 27.328C 10.6658 27.58 10.5725 27.7947 10.3858 27.972C 10.2085 28.14 9.99381 28.224 9.74181 28.224C 9.48981 28.224 9.27515 28.14 9.09781 27.972C 8.92981 27.7947 8.84581 27.58 8.84581 27.328ZM 15.3536 27.328C 15.3536 27.076 15.4376 26.8613 15.6056 26.684C 15.783 26.4973 15.9976 26.404 16.2496 26.404C 16.5016 26.404 16.7163 26.4973 16.8936 26.684C 17.0803 26.8613 17.1736 27.076 17.1736 27.328C 17.1736 27.58 17.0803 27.7947 16.8936 27.972C 16.7163 28.14 16.5016 28.224 16.2496 28.224C 15.9976 28.224 15.783 28.14 15.6056 27.972C 15.4376 27.7947 15.3536 27.58 15.3536 27.328Z"/>
</defs>
</svg>
