<svg width="216" height="216" viewBox="0 0 216 216" version="1.1" xmlns="http://www.w3.org/2000/svg" xmlns:xlink="http://www.w3.org/1999/xlink">
<title>Component 3</title>
<desc>Created using Figma</desc>
<g id="Canvas" transform="matrix(4 0 0 4 -456 -536)">
<g id="Component 3">
<g id="Rectangle">
<use xlink:href="#path0_fill" transform="translate(115 158)" fill="#FFFFFF"/>
<mask id="mask0_outline_ins">
<use xlink:href="#path0_fill" fill="white" transform="translate(115 158)"/>
</mask>
<g mask="url(#mask0_outline_ins)">
<use xlink:href="#path1_stroke_2x" transform="translate(115 158)"/>
</g>
</g>
<g id="Vector">
<use xlink:href="#path2_stroke" transform="translate(115 135)"/>
</g>
<g id="Vector 2">
<use xlink:href="#path3_fill" transform="translate(128.5 158)"/>
<use xlink:href="#path4_stroke" transform="translate(128.5 158)"/>
</g>
<g id="::">
<use xlink:href="#path5_fill" transform="translate(137 156)" fill="#FFFFFF"/>
</g>
<g id="e">
<use xlink:href="#path6_fill" transform="translate(124 158)"/>
</g>
<g id="g">
<use xlink:href="#path7_fill" transform="matrix(0.707107 -0.707107 0.707107 0.707107 132 146.778)"/>
</g>
</g>
</g>
<defs>
<path id="path0_fill" d="M 0 0L 29 0L 29 29L 0 29L 0 0Z"/>
<path id="path1_stroke_2x" d="M 0 0L 0 -0.25L -0.25 -0.25L -0.25 0L 0 0ZM 29 0L 29.25 0L 29.25 -0.25L 29 -0.25L 29 0ZM 29 29L 29 29.25L 29.25 29.25L 29.25 29L 29 29ZM 0 29L -0.25 29L -0.25 29.25L 0 29.25L 0 29ZM 0 0.25L 29 0.25L 29 -0.25L 0 -0.25L 0 0.25ZM 28.75 0L 28.75 29L 29.25 29L 29.25 0L 28.75 0ZM 29 28.75L 0 28.75L 0 29.25L 29 29.25L 29 28.75ZM 0.25 29L 0.25 0L -0.25 0L -0.25 29L 0.25 29Z"/>
<path id="path2_stroke" d="M 29 39L 29.0781 38.9024L 28.875 38.7399L 28.875 39L 29 39ZM 29 52L 29 52.125L 29.125 52.125L 29.125 52L 29 52ZM 0 52L -0.125 52L -0.125 52.125L 0 52.125L 0 52ZM 0 23L 0 22.875L -0.125 22.875L -0.125 23L 0 23ZM 13.5 23L 13.5 23.125L 13.8018 23.125L 13.5884 22.9116L 13.5 23ZM 11 20.5L 10.9116 20.4116L 10.8232 20.5L 10.9116 20.5884L 11 20.5ZM 31.5 0L 31.5884 -0.0883883L 31.5 -0.176777L 31.4116 -0.0883883L 31.5 0ZM 52 20.5L 52.0884 20.5884L 52.1768 20.5L 52.0884 20.4116L 52 20.5ZM 31.5 41L 31.4219 41.0976L 31.5093 41.1675L 31.5884 41.0884L 31.5 41ZM 28.875 39L 28.875 52L 29.125 52L 29.125 39L 28.875 39ZM 29 51.875L 0 51.875L 0 52.125L 29 52.125L 29 51.875ZM 0.125 52L 0.125 23L -0.125 23L -0.125 52L 0.125 52ZM 0 23.125L 13.5 23.125L 13.5 22.875L 0 22.875L 0 23.125ZM 13.5884 22.9116L 11.0884 20.4116L 10.9116 20.5884L 13.4116 23.0884L 13.5884 22.9116ZM 11.0884 20.5884L 31.5884 0.0883883L 31.4116 -0.0883883L 10.9116 20.4116L 11.0884 20.5884ZM 31.4116 0.0883883L 51.9116 20.5884L 52.0884 20.4116L 31.5884 -0.0883883L 31.4116 0.0883883ZM 51.9116 20.4116L 31.4116 40.9116L 31.5884 41.0884L 52.0884 20.5884L 51.9116 20.4116ZM 31.5781 40.9024L 29.0781 38.9024L 28.9219 39.0976L 31.4219 41.0976L 31.5781 40.9024Z"/>
<path id="path3_fill" d="M 15.5 16L 0 0L 15.5 0L 15.5 16Z"/>
<path id="path4_stroke" d="M 0 0L 0 -0.125L -0.29513 -0.125L -0.08978 0.0869744L 0 0ZM 15.5 16L 15.4102 16.087L 15.625 16.3087L 15.625 16L 15.5 16ZM 15.5 0L 15.625 0L 15.625 -0.125L 15.5 -0.125L 15.5 0ZM -0.08978 0.0869744L 15.4102 16.087L 15.5898 15.913L 0.08978 -0.0869744L -0.08978 0.0869744ZM 15.625 16L 15.625 0L 15.375 0L 15.375 16L 15.625 16ZM 15.5 -0.125L 0 -0.125L 0 0.125L 15.5 0.125L 15.5 -0.125Z"/>
<path id="path5_fill" d="M 0.835 9.76C 0.835 9.67 0.865 9.59333 0.925 9.53C 0.988333 9.46333 1.065 9.43 1.155 9.43C 1.245 9.43 1.32167 9.46333 1.385 9.53C 1.45167 9.59333 1.485 9.67 1.485 9.76C 1.485 9.85 1.45167 9.92667 1.385 9.99C 1.32167 10.05 1.245 10.08 1.155 10.08C 1.065 10.08 0.988333 10.05 0.925 9.99C 0.865 9.92667 0.835 9.85 0.835 9.76ZM 0.835 5.57C 0.835 5.48 0.865 5.40333 0.925 5.34C 0.988333 5.27333 1.065 5.24 1.155 5.24C 1.245 5.24 1.32167 5.27333 1.385 5.34C 1.45167 5.40333 1.485 5.48 1.485 5.57C 1.485 5.66 1.45167 5.73667 1.385 5.8C 1.32167 5.86 1.245 5.89 1.155 5.89C 1.065 5.89 0.988333 5.86 0.925 5.8C 0.865 5.73667 0.835 5.66 0.835 5.57ZM 3.15922 9.76C 3.15922 9.67 3.18922 9.59333 3.24922 9.53C 3.31255 9.46333 3.38922 9.43 3.47922 9.43C 3.56922 9.43 3.64589 9.46333 3.70922 9.53C 3.77589 9.59333 3.80922 9.67 3.80922 9.76C 3.80922 9.85 3.77589 9.92667 3.70922 9.99C 3.64589 10.05 3.56922 10.08 3.47922 10.08C 3.38922 10.08 3.31255 10.05 3.24922 9.99C 3.18922 9.92667 3.15922 9.85 3.15922 9.76ZM 3.15922 5.57C 3.15922 5.48 3.18922 5.40333 3.24922 5.34C 3.31255 5.27333 3.38922 5.24 3.47922 5.24C 3.56922 5.24 3.64589 5.27333 3.70922 5.34C 3.77589 5.40333 3.80922 5.48 3.80922 5.57C 3.80922 5.66 3.77589 5.73667 3.70922 5.8C 3.64589 5.86 3.56922 5.89 3.47922 5.89C 3.38922 5.89 3.31255 5.86 3.24922 5.8C 3.18922 5.73667 3.15922 5.66 3.15922 5.57Z"/>
<path id="path6_fill" d="M 9 14.18C 9 13.5467 8.91 12.9867 8.73 12.5C 8.55 12.0067 8.3 11.5933 7.98 11.26C 7.66667 10.9267 7.29667 10.6733 6.87 10.5C 6.44333 10.3267 5.98667 10.24 5.5 10.24C 4.91333 10.24 4.38333 10.3333 3.91 10.52C 3.44333 10.7067 3.04 10.9733 2.7 11.32C 2.36 11.6667 2.08667 12.0833 1.88 12.57C 1.68 13.05 1.55 13.5867 1.49 14.18L 9 14.18ZM 8.94 18.84C 8.82667 18.98 8.65667 19.1267 8.43 19.28C 8.21 19.4267 7.94667 19.5633 7.64 19.69C 7.34 19.8167 7.01 19.92 6.65 20C 6.29 20.08 5.92 20.12 5.54 20.12C 4.86667 20.12 4.26333 20.0033 3.73 19.77C 3.19667 19.53 2.74333 19.1867 2.37 18.74C 2.00333 18.2933 1.72 17.7467 1.52 17.1C 1.32 16.4533 1.22 15.72 1.22 14.9C 1.22 14.18 1.31667 13.5233 1.51 12.93C 1.70333 12.33 1.98333 11.8167 2.35 11.39C 2.71667 10.9633 3.16333 10.6333 3.69 10.4C 4.22333 10.16 4.82667 10.04 5.5 10.04C 6.01333 10.04 6.49667 10.1333 6.95 10.32C 7.40333 10.5 7.79667 10.77 8.13 11.13C 8.47 11.49 8.73667 11.9333 8.93 12.46C 9.12333 12.98 9.22 13.58 9.22 14.26C 9.22 14.2933 9.20667 14.32 9.18 14.34C 9.16 14.3533 9.13333 14.36 9.1 14.36L 1.48 14.36C 1.47333 14.4533 1.46667 14.5433 1.46 14.63C 1.46 14.7167 1.46 14.8067 1.46 14.9C 1.46 15.7133 1.55667 16.4333 1.75 17.06C 1.94333 17.68 2.21667 18.2033 2.57 18.63C 2.93 19.05 3.36 19.37 3.86 19.59C 4.36667 19.81 4.92667 19.92 5.54 19.92C 6.08667 19.92 6.56 19.86 6.96 19.74C 7.36 19.62 7.69333 19.4867 7.96 19.34C 8.22667 19.1933 8.43 19.06 8.57 18.94C 8.71 18.82 8.79333 18.76 8.82 18.76C 8.84667 18.76 8.87333 18.7733 8.9 18.8L 8.94 18.84Z"/>
<path id="path7_fill" d="M 7.94 13.16C 7.94 12.7267 7.86667 12.33 7.72 11.97C 7.58 11.61 7.37667 11.3033 7.11 11.05C 6.84333 10.79 6.52 10.59 6.14 10.45C 5.76 10.31 5.33333 10.24 4.86 10.24C 4.38667 10.24 3.96 10.31 3.58 10.45C 3.2 10.59 2.87667 10.79 2.61 11.05C 2.34333 11.3033 2.13667 11.61 1.99 11.97C 1.85 12.33 1.78 12.7267 1.78 13.16C 1.78 13.5933 1.85 13.99 1.99 14.35C 2.13667 14.71 2.34333 15.02 2.61 15.28C 2.87667 15.5333 3.2 15.73 3.58 15.87C 3.96 16.01 4.38667 16.08 4.86 16.08C 5.34667 16.08 5.78 16.01 6.16 15.87C 6.54 15.73 6.86 15.5333 7.12 15.28C 7.38667 15.02 7.59 14.71 7.73 14.35C 7.87 13.99 7.94 13.5933 7.94 13.16ZM 9.02 20.78C 9.02 20.4067 8.92667 20.11 8.74 19.89C 8.56 19.6633 8.31667 19.49 8.01 19.37C 7.70333 19.2433 7.35333 19.1567 6.96 19.11C 6.56667 19.0633 6.15667 19.03 5.73 19.01C 5.30333 18.9833 4.88 18.96 4.46 18.94C 4.04 18.92 3.65333 18.8767 3.3 18.81C 2.98667 18.9233 2.69667 19.0533 2.43 19.2C 2.16333 19.3467 1.93333 19.5167 1.74 19.71C 1.55333 19.9033 1.40667 20.1167 1.3 20.35C 1.19333 20.5833 1.14 20.84 1.14 21.12C 1.14 21.46 1.23 21.7767 1.41 22.07C 1.59 22.37 1.84333 22.63 2.17 22.85C 2.50333 23.07 2.90667 23.2433 3.38 23.37C 3.85333 23.4967 4.38667 23.56 4.98 23.56C 5.50667 23.56 6.01333 23.49 6.5 23.35C 6.98667 23.2167 7.41667 23.0267 7.79 22.78C 8.16333 22.54 8.46 22.25 8.68 21.91C 8.90667 21.57 9.02 21.1933 9.02 20.78ZM 9.38 10.68L 9.38 10.72C 9.38 10.76 9.36333 10.7933 9.33 10.82C 9.29667 10.8467 9.26 10.86 9.22 10.86L 7.26 10.9C 7.56 11.18 7.78667 11.51 7.94 11.89C 8.1 12.27 8.18 12.6933 8.18 13.16C 8.18 13.6267 8.1 14.0533 7.94 14.44C 7.78667 14.82 7.56333 15.1467 7.27 15.42C 6.98333 15.6933 6.63667 15.9067 6.23 16.06C 5.82333 16.2067 5.36667 16.28 4.86 16.28C 4.52667 16.28 4.21667 16.25 3.93 16.19C 3.65 16.1233 3.38667 16.03 3.14 15.91C 2.80667 16.0967 2.53333 16.33 2.32 16.61C 2.10667 16.89 2 17.16 2 17.42C 2 17.7533 2.10333 18.01 2.31 18.19C 2.51667 18.3633 2.79 18.4933 3.13 18.58C 3.47 18.6667 3.85667 18.7233 4.29 18.75C 4.72333 18.77 5.16667 18.79 5.62 18.81C 6.07333 18.83 6.51667 18.8633 6.95 18.91C 7.38333 18.9567 7.77 19.05 8.11 19.19C 8.45 19.3233 8.72333 19.5167 8.93 19.77C 9.13667 20.0167 9.24 20.3533 9.24 20.78C 9.24 21.1733 9.13667 21.5467 8.93 21.9C 8.73 22.26 8.44333 22.5767 8.07 22.85C 7.70333 23.13 7.25667 23.35 6.73 23.51C 6.21 23.6767 5.62667 23.76 4.98 23.76C 4.32 23.76 3.73667 23.69 3.23 23.55C 2.72333 23.41 2.29667 23.22 1.95 22.98C 1.60333 22.74 1.34 22.46 1.16 22.14C 0.986667 21.82 0.9 21.48 0.9 21.12C 0.9 20.8467 0.95 20.5867 1.05 20.34C 1.15 20.1 1.29 19.88 1.47 19.68C 1.65667 19.48 1.88 19.3 2.14 19.14C 2.4 18.98 2.69 18.8467 3.01 18.74C 2.64333 18.6467 2.34667 18.5 2.12 18.3C 1.89333 18.0933 1.78 17.8 1.78 17.42C 1.78 17.2867 1.80667 17.1467 1.86 17C 1.92 16.8533 2 16.71 2.1 16.57C 2.2 16.4233 2.32 16.2867 2.46 16.16C 2.60667 16.0267 2.77 15.91 2.95 15.81C 2.49667 15.5433 2.14667 15.1833 1.9 14.73C 1.66 14.2767 1.54 13.7533 1.54 13.16C 1.54 12.7 1.61667 12.28 1.77 11.9C 1.92333 11.5133 2.14333 11.1833 2.43 10.91C 2.72333 10.6367 3.07333 10.4233 3.48 10.27C 3.88667 10.1167 4.34667 10.04 4.86 10.04C 5.29333 10.04 5.68667 10.0967 6.04 10.21C 6.4 10.3167 6.72 10.4733 7 10.68L 9.38 10.68Z"/>
</defs>
</svg>
